<svg width="711" height="100" viewBox="0 0 711 100" fill="none" xmlns="http://www.w3.org/2000/svg">
<path d="M33.45 9.6H57.11L90.13 96.96L66.86 99.3L60.49 80.58H29.94L23.83 98H0.3L33.45 9.6ZM53.73 61.99L44.89 37.94L36.44 61.99H53.73ZM121.582 98H97.9219V34.95H111.962L116.122 41.45C119.242 39.4567 123.055 37.55 127.562 35.73C132.069 33.8233 136.835 32.87 141.862 32.87C147.235 32.87 151.569 33.9533 154.862 36.12C158.242 38.2 160.712 41.1033 162.272 44.83C163.919 48.47 164.742 52.63 164.742 57.31V98H141.082V59.52C141.082 57.5267 140.605 55.7933 139.652 54.32C138.699 52.76 136.922 51.98 134.322 51.98C132.849 51.98 130.812 52.37 128.212 53.15C125.699 53.93 123.489 54.7533 121.582 55.62V98ZM226.798 98L223.288 93.45C220.861 95.1833 218.131 96.6133 215.098 97.74C212.064 98.8667 208.944 99.43 205.738 99.43C199.584 99.43 194.038 98.26 189.098 95.92C184.244 93.58 180.388 89.9833 177.528 85.13C174.754 80.19 173.368 73.9933 173.368 66.54C173.368 59 174.754 52.76 177.528 47.82C180.388 42.7933 184.331 39.0233 189.358 36.51C194.384 33.9967 200.191 32.74 206.778 32.74C209.638 32.74 212.411 33.1733 215.098 34.04V7.64999L238.758 6.22V98H226.798ZM197.808 66.41C197.808 71.1767 198.804 74.86 200.798 77.46C202.791 79.9733 205.651 81.23 209.378 81.23C211.111 81.23 213.018 80.58 215.098 79.28V52.76C212.758 51.5467 210.504 50.94 208.338 50.94C205.391 50.94 202.878 52.3267 200.798 55.1C198.804 57.7867 197.808 61.5567 197.808 66.41ZM276.719 98H253.059V35.08H264.889L270.609 42.75C272.342 41.5367 274.379 40.3667 276.719 39.24C279.145 38.0267 281.659 37.03 284.259 36.25C286.945 35.3833 289.459 34.95 291.799 34.95L296.609 53.93C293.489 53.93 290.065 54.58 286.339 55.88C282.612 57.18 279.405 58.87 276.719 60.95V98ZM364.538 72.39H326.188C327.054 74.99 328.658 77.07 330.998 78.63C333.338 80.19 336.501 80.97 340.488 80.97C344.301 80.97 347.638 80.4933 350.498 79.54C353.444 78.5867 355.871 77.6333 357.778 76.68L364.408 92.67C361.894 94.49 358.211 96.0933 353.358 97.48C348.504 98.78 343.434 99.43 338.148 99.43C330.954 99.43 324.498 98.1733 318.778 95.66C313.058 93.1467 308.551 89.4633 305.258 84.61C302.051 79.67 300.448 73.6467 300.448 66.54C300.448 59.4333 301.921 53.3667 304.868 48.34C307.901 43.3133 311.974 39.4567 317.088 36.77C322.288 34.0833 328.051 32.74 334.378 32.74C341.138 32.74 346.728 34.2567 351.148 37.29C355.654 40.2367 358.991 44.2233 361.158 49.25C363.411 54.19 364.538 59.6067 364.538 65.5V72.39ZM325.538 60.69H341.918C341.918 59.4767 341.614 58.1767 341.008 56.79C340.488 55.4033 339.621 54.2333 338.408 53.28C337.281 52.24 335.721 51.72 333.728 51.72C331.561 51.72 329.611 52.63 327.878 54.45C326.231 56.1833 325.451 58.2633 325.538 60.69ZM379.644 55.75L373.404 38.72C376.697 37.2467 380.857 35.9033 385.884 34.69C390.911 33.39 396.024 32.74 401.224 32.74C409.804 32.74 416.304 35.1233 420.724 39.89C425.144 44.6567 427.354 51.0267 427.354 59V98H415.914L409.154 91.5C407.161 94.0133 404.951 95.9633 402.524 97.35C400.184 98.7367 397.671 99.43 394.984 99.43C387.011 99.43 381.074 97.4367 377.174 93.45C373.274 89.4633 371.324 84.22 371.324 77.72C371.324 70.8733 373.621 66.1067 378.214 63.42C382.807 60.6467 388.744 59.26 396.024 59.26H403.564L403.434 58.61C403.001 56.27 402.047 54.58 400.574 53.54C399.101 52.5 397.367 51.98 395.374 51.98C393.207 51.98 390.651 52.37 387.704 53.15C384.757 53.8433 382.071 54.71 379.644 55.75ZM391.084 77.33C391.084 78.63 391.474 79.7133 392.254 80.58C393.121 81.36 394.161 81.75 395.374 81.75C398.061 81.75 400.834 80.58 403.694 78.24V72.26H396.414C394.854 72.26 393.554 72.7367 392.514 73.69C391.561 74.6433 391.084 75.8567 391.084 77.33ZM436.167 92.02L442.797 77.07C444.53 77.85 446.48 78.5867 448.647 79.28C450.9 79.8867 453.11 80.4067 455.277 80.84C457.443 81.2733 459.263 81.49 460.737 81.49C462.297 81.49 463.597 81.23 464.637 80.71C465.677 80.19 466.197 79.4967 466.197 78.63C466.197 78.11 465.59 77.5033 464.377 76.81C463.25 76.03 461.777 75.3367 459.957 74.73C456.49 73.5167 453.023 72.0433 449.557 70.31C446.09 68.49 443.187 66.2367 440.847 63.55C438.593 60.8633 437.467 57.6133 437.467 53.8C437.467 47.2133 439.937 42.0567 444.877 38.33C449.817 34.6033 456.663 32.74 465.417 32.74C467.15 32.74 469.403 32.9133 472.177 33.26C475.037 33.6067 477.983 34.2567 481.017 35.21C484.05 36.1633 486.78 37.5933 489.207 39.5L482.577 54.45C480.063 53.3233 477.42 52.4133 474.647 51.72C471.873 51.0267 469.36 50.68 467.107 50.68C465.2 50.68 463.64 50.94 462.427 51.46C461.213 51.98 460.607 52.6733 460.607 53.54C460.607 54.06 461.213 54.6667 462.427 55.36C463.727 56.0533 465.33 56.7467 467.237 57.44C470.703 58.6533 474.127 60.17 477.507 61.99C480.887 63.7233 483.703 65.9333 485.957 68.62C488.21 71.22 489.337 74.47 489.337 78.37C489.337 84.9567 487.127 90.1133 482.707 93.84C478.373 97.5667 471.83 99.43 463.077 99.43C461.343 99.43 458.787 99.2133 455.407 98.78C452.113 98.3467 448.69 97.61 445.137 96.57C441.583 95.4433 438.593 93.9267 436.167 92.02ZM538.723 26.37C535.257 26.37 532.267 25.1133 529.753 22.6C527.24 20.0867 525.983 17.0967 525.983 13.63C525.983 10.0767 527.24 7.04333 529.753 4.52999C532.267 1.93 535.257 0.629998 538.723 0.629998C542.277 0.629998 545.31 1.93 547.823 4.52999C550.423 7.04333 551.723 10.0767 551.723 13.63C551.723 17.0967 550.423 20.0867 547.823 22.6C545.31 25.1133 542.277 26.37 538.723 26.37ZM550.683 98H527.023V34.95H550.683V98ZM587.373 98H563.713V34.95H577.753L581.913 41.45C585.033 39.4567 588.846 37.55 593.353 35.73C597.86 33.8233 602.626 32.87 607.653 32.87C613.026 32.87 617.36 33.9533 620.653 36.12C624.033 38.2 626.503 41.1033 628.063 44.83C629.71 48.47 630.533 52.63 630.533 57.31V98H606.873V59.52C606.873 57.5267 606.396 55.7933 605.443 54.32C604.49 52.76 602.713 51.98 600.113 51.98C598.64 51.98 596.603 52.37 594.003 53.15C591.49 53.93 589.28 54.7533 587.373 55.62V98ZM668.019 98H644.359V7.64999L668.019 6.22V53.02L691.549 33.13L705.719 49.38L688.949 61.99L710.269 98H684.789L672.309 74.47L668.019 77.72V98Z" fill="url(#paint0_linear)"/>
<defs>
<linearGradient id="paint0_linear" x1="-1" y1="-45" x2="766.265" y2="121.443" gradientUnits="userSpaceOnUse">
<stop stop-color="#522FF5"/>
<stop offset="1" stop-color="#65CAFA"/>
</linearGradient>
</defs>
</svg>
